<?xml version="1.0" standalone="no"?>
<svg xmlns:xlink="http://www.w3.org/1999/xlink" id="wave" style="transform:rotate(180deg); transition: 0.3s" viewBox="0 0 1440 430" version="1.1" xmlns="http://www.w3.org/2000/svg"><defs><linearGradient id="sw-gradient-0" x1="0" x2="0" y1="1" y2="0"><stop stop-color="rgba(13, 110, 253, 1)" offset="0%"/><stop stop-color="rgba(107, 159, 237, 1)" offset="100%"/></linearGradient></defs><path style="transform:translate(0, 0px); opacity:1" fill="url(#sw-gradient-0)" d="M0,129L288,86L576,258L864,129L1152,215L1440,172L1728,301L2016,129L2304,301L2592,86L2880,172L3168,172L3456,0L3744,43L4032,215L4320,215L4608,258L4896,387L5184,172L5472,129L5760,387L6048,258L6336,43L6624,258L6912,129L6912,430L6624,430L6336,430L6048,430L5760,430L5472,430L5184,430L4896,430L4608,430L4320,430L4032,430L3744,430L3456,430L3168,430L2880,430L2592,430L2304,430L2016,430L1728,430L1440,430L1152,430L864,430L576,430L288,430L0,430Z"/><defs><linearGradient id="sw-gradient-1" x1="0" x2="0" y1="1" y2="0"><stop stop-color="rgba(13, 110, 253, 1)" offset="0%"/><stop stop-color="rgba(107, 159, 237, 1)" offset="100%"/></linearGradient></defs><path style="transform:translate(0, 50px); opacity:0.9" fill="url(#sw-gradient-1)" d="M0,344L288,172L576,172L864,301L1152,86L1440,258L1728,129L2016,344L2304,301L2592,215L2880,0L3168,86L3456,258L3744,129L4032,258L4320,344L4608,387L4896,344L5184,129L5472,86L5760,215L6048,129L6336,0L6624,344L6912,301L6912,430L6624,430L6336,430L6048,430L5760,430L5472,430L5184,430L4896,430L4608,430L4320,430L4032,430L3744,430L3456,430L3168,430L2880,430L2592,430L2304,430L2016,430L1728,430L1440,430L1152,430L864,430L576,430L288,430L0,430Z"/><defs><linearGradient id="sw-gradient-2" x1="0" x2="0" y1="1" y2="0"><stop stop-color="rgba(13, 110, 253, 1)" offset="0%"/><stop stop-color="rgba(107, 159, 237, 1)" offset="100%"/></linearGradient></defs><path style="transform:translate(0, 100px); opacity:0.8" fill="url(#sw-gradient-2)" d="M0,172L288,344L576,301L864,43L1152,129L1440,0L1728,86L2016,387L2304,129L2592,43L2880,129L3168,43L3456,129L3744,172L4032,344L4320,86L4608,129L4896,387L5184,387L5472,43L5760,301L6048,0L6336,215L6624,387L6912,215L6912,430L6624,430L6336,430L6048,430L5760,430L5472,430L5184,430L4896,430L4608,430L4320,430L4032,430L3744,430L3456,430L3168,430L2880,430L2592,430L2304,430L2016,430L1728,430L1440,430L1152,430L864,430L576,430L288,430L0,430Z"/></svg>